<?xml version="1.0" encoding="UTF-8" standalone="no"?>
<!-- Created with Inkscape (http://www.inkscape.org/) -->

<svg
   version="1.1"
   id="svg1"
   width="610"
   height="610.00006"
   viewBox="0 0 610 610.00006"
   sodipodi:docname="file_00000000ea987246a177d95a8d532753.png"
   inkscape:export-filename="../Projects/eskai-landing/public/logo.png"
   inkscape:export-xdpi="96"
   inkscape:export-ydpi="96"
   xmlns:inkscape="http://www.inkscape.org/namespaces/inkscape"
   xmlns:sodipodi="http://sodipodi.sourceforge.net/DTD/sodipodi-0.dtd"
   xmlns="http://www.w3.org/2000/svg"
   xmlns:svg="http://www.w3.org/2000/svg">
  <defs
     id="defs1" />
  <sodipodi:namedview
     id="namedview1"
     pagecolor="#505050"
     bordercolor="#eeeeee"
     borderopacity="1"
     inkscape:showpageshadow="0"
     inkscape:pageopacity="0"
     inkscape:pagecheckerboard="0"
     inkscape:deskcolor="#505050">
    <inkscape:page
       x="0"
       y="0"
       width="610"
       height="610.00006"
       id="page2"
       margin="0"
       bleed="0" />
  </sodipodi:namedview>
  <g
     inkscape:groupmode="layer"
     inkscape:label="Image"
     id="g1"
     transform="translate(862.79321,-665.34247)">
    <circle
       style="fill:#5bce12;fill-opacity:1;stroke-width:1.95024"
       id="circle19"
       cx="-557.79321"
       cy="970.34247"
       r="305"
       inkscape:export-filename="../Projects/eskai-landing/Projects/eskai-landing/Projects/eskai-landing/Projects/eskai-landing/Projects/eskai-landing/public/logo.png"
       inkscape:export-xdpi="96"
       inkscape:export-ydpi="96" />
    <path
       style="fill:#1a1a1a;fill-opacity:1;stroke-width:3.29595"
       d="m -565.23046,1226.1086 c -24.09657,-3.619 -48.87334,-10.2765 -59.57344,-16.0074 -3.4857,-1.8668 -6.3493,-2.7752 -6.3635,-2.0186 -0.014,0.7566 -0.5846,0.6151 -1.2675,-0.3144 -0.6829,-0.9295 -4.2837,-3.1803 -8.0018,-5.0017 -18.8767,-9.2473 -41.4794,-26.4674 -62.3086,-47.4704 -14.4635,-14.5842 -15.0186,-15.2583 -25.2013,-30.6034 -37.5281,-56.5537 -48.5597,-132.5326 -29.9282,-206.12736 4.7238,-18.65924 20.6996,-51.08728 34.0338,-69.08286 10.851,-14.64439 37.5515,-42.27672 44.5265,-46.08056 3.3165,-1.80864 3.2961,-1.99099 -1.2196,-10.90918 -2.5259,-4.98839 -5.7548,-12.36418 -7.1754,-16.39065 -3.0146,-8.54437 -3.427,-30.23474 -0.6891,-36.24385 l 1.8939,-4.1566 13.6579,11.80221 c 16.4053,14.17639 24.899,18.31082 44.5262,21.67384 6.822,1.1689 11.6358,0.77885 21.9704,-1.78022 34.05578,-8.4329 73.09661,-8.10549 104.03696,0.87251 14.25815,4.1373 42.42598,18.21349 49.5785,24.77565 6.76291,6.2047 34.50999,3.0216 52.08477,-5.97509 6.39819,-3.27528 12.37289,-5.49782 13.27712,-4.93897 2.7506,1.69997 0.20618,18.39184 -4.30588,28.24752 -2.33542,5.1012 -7.36641,12.65993 -11.17999,16.79717 l -6.93377,7.52226 6.60738,10.87598 c 19.84727,32.66926 28.6096,69.7229 26.70173,112.91472 -1.99126,45.07938 -17.80557,83.36058 -46.74334,113.15018 -3.55979,3.6645 -4.2687,3.8789 -4.75444,1.4377 -0.31397,-1.5779 0.15189,-4.2397 1.0352,-5.9151 2.86824,-5.44 10.23963,-34.7516 12.879,-51.2119 7.00716,-43.69977 0.47402,-102.1563 -15.29916,-136.89215 -17.32108,-38.14467 -44.43216,-54.4484 -78.42003,-47.15931 -10.38896,2.22803 -31.31211,15.71409 -38.01591,24.50323 l -4.67024,6.123 -6.7537,-12.17709 c -8.63021,-15.56046 -16.01023,-22.85945 -29.49231,-29.16848 -19.32099,-9.04139 -39.50559,-7.69468 -61.66099,4.11402 -30.4617,16.23595 -46.2859,59.79461 -36.9143,101.61271 2.2924,10.22885 9.7217,29.88995 12.5464,33.20296 1.2217,1.43291 2.7102,3.98032 3.3078,5.66092 2.4273,6.82661 17.3475,25.49065 28.7255,35.93359 14.9109,13.6855 48.82391,36.3401 53.51309,35.7479 0.46476,-0.059 3.88706,1.8037 7.60512,4.1387 3.71806,2.335 13.48826,7.5237 21.71156,11.5305 41.55722,20.2486 71.69914,55.2839 87.35437,101.5358 4.03845,11.9312 6.83888,37.219 5.4683,49.3787 -0.83907,7.4443 -1.23867,7.9324 -9.82173,11.9963 -14.03496,6.6452 -41.37071,11.2114 -65.50516,10.942 -11.33937,-0.1266 -22.51832,-0.5158 -24.84211,-0.8648 z"
       id="path20" />
    <path
       style="fill:#1a1a1a;fill-opacity:1;stroke-width:3.29595"
       d="m -564.11213,920.88612 c -3.30522,-9.52753 -6.50858,-19.12004 -7.11858,-21.3167 l -1.1091,-3.99391 14.11734,1.12478 c 18.25483,1.45443 23.4125,2.49328 23.4125,4.71569 0,0.99503 -3.04205,7.08551 -6.76011,13.53439 -3.71806,6.44889 -6.76011,12.3164 -6.76011,13.03891 0,1.95134 -6.78716,10.21961 -8.38895,10.21961 -0.76093,0 -4.08778,-7.79524 -7.39299,-17.32277 z"
       id="path21" />
    <path
       style="fill:#1a1a1a;fill-opacity:1;stroke-width:1.16529"
       d="m -618.049,904.6859 c -3.5594,-0.52502 -5.5794,-1.80259 -10.8726,-6.87662 -4.6143,-4.42328 -5.14,-5.23349 -6.7006,-10.32677 -1.0067,-3.28558 -1.3118,-12.44 -0.4328,-12.98328 0.2844,-0.17573 0.6686,-1.25345 0.8538,-2.39492 0.4237,-2.61122 7.6674,-10.38834 11.3506,-12.18651 5.283,-2.57918 7.0143,-3.11148 10.3879,-3.19378 6.9265,-0.16897 12.9358,2.10504 17.2352,6.52204 1.35944,1.39669 2.71951,2.54217 3.02232,2.54551 0.30281,0.003 1.02746,1.01165 1.61034,2.24068 0.58288,1.22903 1.51247,3.04125 2.06576,4.02715 0.70126,1.24959 1.07996,3.66081 1.25027,7.96055 0.24159,6.09943 0.22025,6.21668 -1.91951,10.54619 -1.1901,2.408 -2.87606,5.01003 -3.74659,5.78229 -0.87052,0.77226 -2.68409,2.52973 -4.03009,3.90549 -1.7937,1.83331 -3.325,2.73807 -5.7336,3.38761 -4.0345,1.08796 -10.736,1.57602 -14.3404,1.04437 z m 7.4689,-6.63461 c 0.2031,-0.32863 0.7702,-0.59751 1.2601,-0.59751 1.5754,0 8.5854,-3.26174 8.5923,-3.99797 0.01,-1.11829 -1.0138,-1.4647 -1.8871,-0.63827 -0.4938,0.46729 -2.4932,0.75239 -5.2764,0.75239 -3.6839,0 -4.8151,-0.23805 -6.3567,-1.33766 -2.5318,-1.80592 -5.6337,-6.77684 -6.0183,-9.64466 -0.3893,-2.90244 1.851,-7.35332 5.3141,-10.55743 3.9848,-3.68692 9.6851,-3.43325 15.2767,0.67983 1.1842,0.8711 1.3444,0.87892 1.3444,0.0656 0,-1.23726 -2.8781,-4.60009 -3.937,-4.60009 -0.4637,0 -0.8431,-0.41704 -0.8431,-0.92676 0,-2.15683 -8.6162,-3.8078 -13.5022,-2.58717 -1.6112,0.40252 -3.7361,1.22715 -4.722,1.83251 -0.9859,0.60536 -2.1959,1.24526 -2.6888,1.422 -1.321,0.47363 -3.3846,3.89196 -4.5429,7.5253 -0.5594,1.75485 -1.275,3.52324 -1.5902,3.92977 -0.6735,0.86864 -0.085,3.74222 0.7668,3.74222 0.3224,0 0.5861,1.03927 0.5861,2.30948 0,1.27021 0.4706,2.95381 1.0457,3.74133 0.5751,0.78752 1.3409,1.96652 1.7018,2.62002 0.3609,0.65349 1.2329,1.48092 1.9378,1.83873 0.7049,0.35781 1.7879,1.10872 2.4067,1.6687 0.6188,0.55998 2.1644,1.18681 3.4347,1.39296 1.2703,0.20614 2.6673,0.73241 3.1044,1.16949 0.9299,0.92992 4.0573,1.06417 4.5931,0.19716 z"
       id="path22" />
    <path
       style="fill:#1a1a1a;fill-opacity:1;stroke-width:1.16529"
       d="m -493.46717,914.11197 c -6.37083,-0.93372 -10.45651,-1.87128 -10.45651,-2.39949 0,-0.28372 -0.40246,-0.51586 -0.89436,-0.51586 -0.9087,0 -6.11722,-5.04391 -8.02121,-7.7677 -2.09912,-3.00296 -3.26104,-6.87178 -3.40956,-11.35278 -0.27423,-8.27394 -0.18587,-9.13803 1.1663,-11.40552 1.81952,-3.0512 8.55067,-10.72145 9.00771,-10.26442 0.20401,0.20401 0.70425,-0.0497 1.11164,-0.56376 1.28806,-1.62535 6.92422,-3.04174 12.06939,-3.03309 4.77946,0.008 12.27317,1.61994 12.27317,2.63997 0,0.28533 0.35887,0.51878 0.7975,0.51878 0.43863,0 1.52626,0.8179 2.41696,1.81756 0.8907,0.99966 2.29573,2.07468 3.1223,2.38894 0.82656,0.31426 1.34173,0.83205 1.14483,1.15065 -0.19691,0.3186 0.22289,1.73073 0.93288,3.13807 0.71,1.40734 1.59435,3.16169 1.96522,3.89855 0.37088,0.73686 0.81527,1.34184 0.98753,1.3444 0.51747,0.008 -0.44437,10.90598 -1.21548,13.77213 -1.10782,4.11768 -2.22423,5.86943 -6.1723,9.68496 -3.81744,3.68926 -8.07329,6.10031 -10.4661,5.9293 -1.02632,-0.0733 -1.31473,0.14186 -1.0644,0.79422 0.38589,1.00563 0.11006,1.01735 -5.29551,0.22509 z m 5.96299,-7.95064 c 1.15691,-0.48339 2.10346,-1.16814 2.10346,-1.52168 0,-0.86669 -2.61839,-1.80824 -5.02861,-1.80824 -2.42558,0 -5.65352,-1.04863 -7.15781,-2.32529 -1.60615,-1.3631 -3.3856,-5.62268 -3.58926,-8.59184 -0.24359,-3.55141 0.74,-5.5815 4.69834,-9.69713 l 3.44807,-3.58509 3.70328,0.0523 c 2.91177,0.0411 4.35855,0.42067 6.7692,1.77576 1.68626,0.94789 3.28083,1.50854 3.54349,1.24588 0.26266,-0.26266 -0.66357,-1.54201 -2.0583,-2.84299 -1.39472,-1.30098 -2.53586,-2.62459 -2.53586,-2.94136 0,-0.31676 -0.6722,-0.57593 -1.49378,-0.57593 -0.82159,0 -1.49379,-0.26888 -1.49379,-0.59752 0,-0.32863 -0.65634,-0.59751 -1.45852,-0.59751 -0.80219,0 -1.64598,-0.3033 -1.87509,-0.67401 -0.54605,-0.88353 -6.65245,-0.26094 -9.62585,0.98143 -4.17774,1.74557 -7.70616,5.61032 -8.89876,9.74699 -0.53748,1.86432 -1.21689,3.85657 -1.5098,4.42722 -0.82105,1.59955 -0.65085,2.91859 0.87307,6.76623 2.04607,5.16595 3.6206,7.70462 4.91923,7.93139 0.62923,0.10988 1.41295,0.5373 1.74158,0.94983 0.32863,0.41252 2.2108,1.33393 4.1826,2.04758 3.90498,1.41331 7.08068,1.36423 10.74311,-0.16603 z m 6.28385,-4.22384 c 0.77062,-0.82028 1.27336,-1.6192 1.1172,-1.77535 -0.35549,-0.3555 -4.07818,2.20862 -4.09224,2.81865 -0.0221,0.95952 1.64159,0.37609 2.97504,-1.0433 z"
       id="path23" />
  </g>
</svg>
